SplineFontDB: 3.0
FontName: StamSefaradCLM
FullName: Stam Sefarad CLM
FamilyName: Stam Sefarad CLM
Weight: Medium
Copyright: Created by Yoram Gnat with FontForge (http://fontforge.sf.net)\n\nCopyright 2008-2010 by Yoram Gnat (yoram.gnat@gmail.com). Distributed under the terms of GNU General Public Licence version 2 (http://www.gnu.org/licenses/gpl.html)\n\nAs a special exception, if you create a document which uses this font, and embed this font or unaltered portions of this font into the document, this font does not by itself cause the resulting document to be covered by the GNU General Public License. This exception does not however invalidate any other reasons why the document might be covered by the GNU General Public License. If you modify this font, you may extend this exception to your version of the font, but you are not obligated to do so. If you do not wish to do so, delete this exception statement from your version. 
UComments: "2006-9-4: Created." 
Version: 0.110
ItalicAngle: 0
UnderlinePosition: -204
UnderlineWidth: 102
Ascent: 1638
Descent: 410
LayerCount: 2
Layer: 0 0 "Back"  1
Layer: 1 0 "Fore"  0
XUID: [1021 152 2123407394 541281]
FSType: 0
OS2Version: 0
OS2_WeightWidthSlopeOnly: 0
OS2_UseTypoMetrics: 0
CreationTime: 1159709374
ModificationTime: 1286635847
OS2TypoAscent: 0
OS2TypoAOffset: 1
OS2TypoDescent: 0
OS2TypoDOffset: 1
OS2TypoLinegap: 184
OS2WinAscent: 0
OS2WinAOffset: 1
OS2WinDescent: 0
OS2WinDOffset: 1
HheadAscent: 0
HheadAOffset: 1
HheadDescent: 0
HheadDOffset: 1
OS2Vendor: 'PfEd'
Lookup: 260 1 0 "'mark' Mark Positioning in Hebrew lookup 0"  {"'mark' Mark Positioning in Hebrew lookup 0-1"  } ['mark' ('hebr' <'dflt' > ) ]
MarkAttachClasses: 1
DEI: 91125
ShortTable: cvt  2
  33
  633
EndShort
GaspTable: 3 8 0 16 1 65535 3
Encoding: UnicodeBmp
Compacted: 1
UnicodeInterp: none
NameList: Adobe Glyph List
DisplaySize: -72
AntiAlias: 1
FitToEm: 1
WinInfo: 64 16 4
BeginPrivate: 1
BlueValues 39 [ 300 315 750 765 1050 1065 1400 1415 ]
EndPrivate

StartChar: afii57664
Encoding: 1488 1488 1
Width: 1174
VWidth: 1348
Flags: W
TeX: 128 0
VStem: 136 122<828.5 1085.5> 209 318<73.1759 232.551> 965 100<6.56683 111.051> 965 44<-17.0265 26.934>
AnchorPoint: "puncta" 500 0 basechar 0
LayerCount: 2
Fore
SplineSet
272 416 m 0x20
 279 347 527 320 527 139 c 0
 527 98 511 52 465 0 c 9
 119 0 l 18
 90 0 81 8 81 15 c 0
 81 20 86 24 91 28 c 0
 126 55 198 73 209 134 c 1x60
 209 183 140 252 140 297 c 0
 140 301 139 305 140 308 c 1
 186 442 225 498 269 618 c 1
 171 703 136 787 136 870 c 0
 136 955 173 1039 215 1122 c 1
 221 1127 226 1130 232 1130 c 0
 243 1130 252 1119 261 1102 c 1
 259 1096 258 1089 258 1082 c 0
 258 957 548 732 743 556 c 9
 841 696 l 17
 720 795 677 880 677 955 c 0
 677 1033 722 1101 775 1168 c 1
 814 1102 840 1070 891 1018 c 1
 967 945 1063 875 1063 814 c 0
 1063 809 1063 803 1061 798 c 0
 1025 678 1007 656 969 582 c 9
 895 640 l 25
 805 512 l 17
 988 392 1065 283 1065 168 c 0xa0
 1065 109 1045 49 1009 -14 c 1
 1007 -17 1002 -18 996 -18 c 0
 982 -18 965 -11 965 0 c 1x10
 965 26 l 2
 965 73 942 93 917 114 c 10
 343 570 l 25
 275 436 l 18
 272 428 272 419 272 416 c 0x20
EndSplineSet
Validated: 1
EndChar

StartChar: afii57665
Encoding: 1489 1489 2
Width: 1063
VWidth: 1315
Flags: W
TeX: 128 0
HStem: 0 300<131.821 812> 750 300<285.904 807.586> 1381 20G<250 281.5>
VStem: 248 37<1050 1269.33> 812 97<300 750>
AnchorPoint: "puncta" 520 0 basechar 0
LayerCount: 2
Fore
SplineSet
285 1050 m 1
 719 1050 l 2
 882 1050 909 915 909 750 c 10
 909 300 l 17
 952 307 994 329 1031 355 c 1
 1017 229 999 0 944 0 c 10
 97 0 l 17
 96 5 95 13 95 25 c 0
 95 91 113 248 154 300 c 9
 812 300 l 25
 812 750 l 17
 322 750 l 2
 234 750 161 836 153 879 c 0
 147 917 145 949 145 978 c 0
 145 1027 145 1066 151 1113 c 1
 169 1092 190 1050 224 1050 c 2
 248 1050 l 1
 248 1256 l 1
 226 1266 209 1294 209 1327 c 0
 209 1368 234 1401 266 1401 c 0
 297 1401 322 1368 322 1327 c 0
 322 1295 307 1268 285 1257 c 1
 285 1050 l 1
EndSplineSet
Validated: 1
EndChar

StartChar: afii57666
Encoding: 1490 1490 3
Width: 792
VWidth: 1334
Flags: W
TeX: 128 0
HStem: 0 300<151.826 486> 750 300<328.781 415 453 518>
VStem: 238 397<799.343 968.436> 238 113<1192.48 1334.11> 415 38<1050 1325.33> 513 113<1179.48 1321.11>
AnchorPoint: "puncta" 420 0 basechar 0
LayerCount: 2
Fore
SplineSet
551 1045 m 1xdc
 592 1033 615 1002 630 969 c 1
 634 957 635 943 635 927 c 0
 635 864 610 779 596 750 c 1
 642 625 683 483 718 296 c 1
 722 269 724 243 724 219 c 0
 724 129 722 65 694 0 c 1
 624 75 636 186 570 246 c 1
 519 170 486 100 486 0 c 9
 58 0 l 17
 58 136 74 218 164 300 c 9
 542 300 l 17
 542 750 l 1
 483 750 408 750 408 750 c 1
 321 750 238 819 238 879 c 1xe0
 231 917 231 949 231 978 c 0
 231 1027 238 1067 238 1113 c 1
 256 1092 266 1059 311 1050 c 1
 296 1115 277 1191 276 1192 c 1
 254 1202 238 1229 238 1262 c 0
 238 1303 263 1336 294 1336 c 0
 326 1336 351 1303 351 1262 c 0
 351 1230 327 1202 306 1191 c 1
 306 1185 327 1102 339 1050 c 1
 415 1050 l 1
 415 1312 l 1
 392 1322 376 1350 376 1383 c 0
 376 1424 402 1457 433 1457 c 0
 464 1457 490 1424 490 1383 c 0
 490 1351 474 1324 453 1313 c 1
 453 1050 l 1
 518 1050 l 1
 551 1179 l 1
 529 1189 513 1216 513 1249 c 0
 513 1290 538 1323 570 1323 c 0
 601 1323 626 1290 626 1249 c 0
 626 1217 602 1189 580 1178 c 1
 551 1045 l 1xdc
EndSplineSet
Validated: 1
EndChar

StartChar: afii57668
Encoding: 1492 1492 4
Width: 1126
VWidth: 1312
Flags: W
TeX: 128 0
HStem: 750 297<272.022 842 928 1008.84>
VStem: 123 149<264.294 468.04 1047 1057> 175 127<94.5 412.27> 235 37<1048 1253.35> 842 161<102.8 386.825> 842 86<664.175 750>
AnchorPoint: "puncta" 550 0 basechar 0
LayerCount: 2
Fore
SplineSet
272 1047 m 1xc0
 999 1047 l 2
 1022 1047 1032 1001 1032 945 c 0
 1032 860 1009 754 975 750 c 9
 928 750 l 25xc4
 1003 301 l 17x88
 1003 123 932 62 880 0 c 0
 879 -1 878 0 877 0 c 0
 867 0 842 35 842 52 c 10
 842 750 l 17
 300 750 l 2
 213 750 140 840 132 879 c 0
 125 917 123 949 123 978 c 0
 123 996 123 1013 123 1029 c 0xc4
 123 1057 124 1084 128 1113 c 1
 144 1086 158 1057 203 1048 c 1
 235 1048 l 1
 235 1240 l 1
 213 1250 196 1278 196 1312 c 0
 196 1352 221 1386 253 1386 c 0
 284 1386 309 1352 309 1312 c 0
 309 1280 294 1252 272 1242 c 1x90
 272 1047 l 1xc0
264 536 m 0
 264 418 288 352 302 260 c 0
 302 256 302 252 301 248 c 0
 283 162 234 81 175 -10 c 1
 173 -13 170 -14 168 -14 c 0
 160 -14 152 -1 152 11 c 0
 152 14 153 17 154 20 c 1
 172 48 175 77 175 112 c 0xa0
 175 156 163 207 128 272 c 1
 128 438 199 534 248 596 c 1
 258 585 264 571 264 536 c 0
EndSplineSet
Validated: 1
EndChar

StartChar: afii57667
Encoding: 1491 1491 5
Width: 1062
VWidth: 1312
Flags: W
TeX: 128 0
HStem: 750 300<143.986 240 277 750 837 944.504>
VStem: 106 855<786.456 1048.67> 240 37<1050 1257.35> 750 162<103.753 388.443> 750 87<664.557 750>
AnchorPoint: "puncta" 500 0 basechar 0
LayerCount: 2
Fore
SplineSet
277 1050 m 1xa0
 927 1050 l 1
 958 1050 961 1011 961 979 c 0
 961 971 961 963 961 956 c 0xc0
 961 865 955 772 915 750 c 9
 837 750 l 25x88
 912 303 l 17x90
 912 125 842 62 789 0 c 1
 789 0 788 -0 787 -0 c 0
 780 -0 750 15 750 54 c 9
 750 750 l 17x88
 283 750 l 1
 158 750 135 776 115 879 c 1
 109 917 106 949 106 978 c 0xc0
 106 1027 107 1067 113 1113 c 1
 131 1092 141 1059 186 1050 c 1
 240 1050 l 1
 240 1244 l 1
 218 1254 201 1282 201 1316 c 0
 201 1356 226 1390 258 1390 c 0
 289 1390 314 1356 314 1316 c 0
 314 1284 299 1256 277 1246 c 1
 277 1050 l 1xa0
EndSplineSet
Validated: 1
EndChar

StartChar: afii57669
Encoding: 1493 1493 6
Width: 570
VWidth: 1334
Flags: W
TeX: 128 0
HStem: 750 300<163.489 350.256>
VStem: 362 112<167.76 739.513> 362 58<25.1938 218.254>
AnchorPoint: "puncta" 249 0 basechar 0
LayerCount: 2
Fore
SplineSet
283 750 m 1xc0
 196 750 115 819 115 879 c 1
 108 917 106 949 106 978 c 0
 106 989 106 999 106 1010 c 0
 106 1045 107 1078 112 1113 c 1
 129 1084 141 1059 185 1050 c 9
 291 1050 l 17
 470 1050 474 890 474 656 c 0
 474 643 474 631 474 618 c 1xc0
 474 381 456 246 420 42 c 1
 417 30 377 0 362 0 c 9xa0
 362 662 l 17
 362 716 318 750 283 750 c 1xc0
EndSplineSet
Validated: 1
EndChar

StartChar: afii57670
Encoding: 1494 1494 7
Width: 621
VWidth: 1334
Flags: W
TeX: 128 0
HStem: 750 300<210.231 298 355.354 409.055>
VStem: 104 422<813.004 991.761> 123 113<1203.48 1345.11> 185 33<1050 1137.42> 228 127<438.007 673.94> 298 40<1050 1338.2> 314 108<85.4139 281.469> 314 24<22 24.5371> 398 113<1190.48 1332.11>
AnchorPoint: "puncta" 300 0 basechar 0
LayerCount: 2
Fore
SplineSet
307 750 m 1x88
 185 750 104 804 104 978 c 1xc0
 104 1020 104 1061 112 1113 c 1
 131 1092 143 1050 185 1050 c 1x90
 161 1203 l 1
 139 1213 123 1240 123 1273 c 0
 123 1314 148 1347 179 1347 c 0
 211 1347 236 1314 236 1273 c 0xa0
 236 1241 212 1213 191 1202 c 1
 191 1196 208 1102 218 1050 c 1
 298 1050 l 1
 298 1323 l 1
 275 1333 261 1361 261 1394 c 0
 261 1435 287 1468 318 1468 c 0
 349 1468 375 1435 375 1394 c 0
 375 1362 359 1335 338 1324 c 1
 338 1050 l 1
 360 1050 390 1046 410 1038 c 1
 436 1190 l 1
 414 1200 398 1227 398 1260 c 0
 398 1301 423 1334 455 1334 c 0
 486 1334 511 1301 511 1260 c 0x9480
 511 1228 487 1200 465 1189 c 1
 442 1023 l 1
 485 997 515 958 515 921 c 1
 522 883 526 851 526 822 c 0xc0
 526 772 518 733 518 687 c 1
 499 708 489 741 445 750 c 9
 360 750 l 17
 356 731 355 708 355 683 c 0x88
 355 536 422 412 422 290 c 3x82
 422 256 419 218 409 173 c 1
 385 93 371 71 338 0 c 9
 314 22 l 17x81
 314 210 228 341 228 518 c 9
 228 518 265 689 307 750 c 1x88
EndSplineSet
Validated: 1
EndChar

StartChar: afii57671
Encoding: 1495 1495 8
Width: 1118
VWidth: 1316
Flags: W
TeX: 128 0
HStem: 750 300<165.076 232 262 268 306 872.352>
VStem: 120 26<1111.25 1209.74> 138 124<369.625 625.893> 268 38<1050 1250.28> 940 60<16.5558 427.955>
AnchorPoint: "puncta" 555 0 basechar 0
LayerCount: 2
Fore
SplineSet
306 1050 m 1xd8
 886 1050 l 1
 990 1050 1001 943 1001 832 c 0
 1001 804 1000 776 1000 750 c 9
 1000 28 l 17
 980 8 960 0 940 0 c 1
 940 35 l 0
 940 208 939 379 904 586 c 1
 892 680 866 750 812 750 c 9
 262 750 l 17
 262 550 310 450 310 304 c 1
 297 178 240 15 201 -75 c 1
 201 93 138 318 138 490 c 1xb8
 158 581 199 664 232 750 c 9
 174 750 l 17
 142 750 112 831 112 920 c 1
 112 934 112 948 112 963 c 0
 112 1027 113 1091 120 1156 c 1
 124 1184 128 1207 146 1228 c 1
 146 1138 162 1066 198 1050 c 1
 268 1050 l 1
 268 1236 l 1
 246 1246 230 1274 230 1308 c 0
 230 1348 254 1382 286 1382 c 0
 318 1382 342 1348 342 1308 c 0
 342 1276 328 1248 306 1238 c 1
 306 1050 l 1xd8
EndSplineSet
Validated: 1
EndChar

StartChar: afii57672
Encoding: 1496 1496 9
Width: 1177
VWidth: 1334
Flags: W
TeX: 128 0
HStem: 0 300<353 887.544> 725 363<713.339 903.961> 750 300<205.126 299 355.354 414.961>
VStem: 115 409<796.726 994.103> 122 113<1182.48 1324.11> 238 115<300.006 673.15> 266 87<300 472.052> 299 38<1050 1315.33> 306 54<684.17 750> 397 113<1169.48 1311.11> 978 120<389.752 676.542>
AnchorPoint: "puncta" 600 0 basechar 0
LayerCount: 2
Fore
SplineSet
446 1022 m 1xa960
 487 996 515 956 515 921 c 1
 522 883 524 851 524 822 c 0xb020
 524 773 518 733 518 687 c 1
 499 708 487 741 443 750 c 9
 360 750 l 17xa0a0
 356 731 355 708 355 683 c 0
 355 567 353 449 353 300 c 25xa220
 788 300 l 17
 888 300 978 403 978 536 c 1
 978 658 921 725 801 725 c 1
 678 725 581 458 568 448 c 1
 625 668 698 827 698 1084 c 1
 721 1087 745 1088 771 1088 c 0
 804 1088 840 1085 881 1078 c 1
 952 1045 990 1018 1020 957 c 9
 1020 957 1098 840 1098 573 c 1
 1098 196 882 0 801 0 c 9
 238 0 l 17xc420
 261 67 266 138 266 210 c 0xc220
 266 293 238 392 238 476 c 1xc420
 238 565 251 575 306 750 c 1xa0a0
 180 750 115 819 115 879 c 1xb020
 108 917 106 949 106 978 c 0
 106 1028 112 1067 112 1113 c 1
 131 1092 137 1060 181 1050 c 1
 160 1182 l 1
 138 1192 122 1219 122 1252 c 0
 122 1293 147 1326 178 1326 c 0
 210 1326 235 1293 235 1252 c 0
 235 1220 211 1192 190 1181 c 1
 190 1175 204 1100 213 1050 c 1
 299 1050 l 1
 299 1302 l 1
 276 1312 260 1340 260 1373 c 0
 260 1414 286 1447 317 1447 c 0
 348 1447 374 1414 374 1373 c 0
 374 1341 358 1314 337 1303 c 1
 337 1050 l 1
 362 1050 394 1044 416 1035 c 1
 435 1169 l 1
 413 1179 397 1206 397 1239 c 0
 397 1280 422 1313 454 1313 c 0
 485 1313 510 1280 510 1239 c 0
 510 1207 486 1179 464 1168 c 1
 446 1022 l 1xa960
EndSplineSet
Validated: 1
EndChar

StartChar: afii57673
Encoding: 1497 1497 10
Width: 543
VWidth: 1334
Flags: W
TeX: 128 0
VStem: 209 37<1050 1248.33> 320 127<703 750>
AnchorPoint: "puncta" 246 0 basechar 0
LayerCount: 2
Fore
SplineSet
246 1050 m 1
 347 1050 l 1
 413 1050 447 965 447 872 c 1
 447 703 332 557 245 491 c 9
 212 487 l 17
 277 571 320 668 320 750 c 9
 283 750 l 1
 196 750 126 824 115 879 c 1
 108 917 106 949 106 978 c 0
 106 1027 112 1066 112 1113 c 1
 128 1084 141 1059 185 1050 c 1
 209 1050 l 1
 209 1235 l 1
 187 1245 170 1273 170 1306 c 0
 170 1347 194 1380 226 1380 c 0
 258 1380 282 1347 282 1306 c 0
 282 1274 268 1247 246 1236 c 1
 246 1050 l 1
EndSplineSet
Validated: 1
EndChar

StartChar: afii57674
Encoding: 1498 1498 11
Width: 1082
VWidth: 1334
Flags: W
TeX: 128 0
HStem: 750 300<158.342 783.737>
VStem: 825 150<-171.771 702.519> 825 90<-479.109 7.93018>
AnchorPoint: "puncta" 480 0 basechar 0
LayerCount: 2
Fore
SplineSet
281 750 m 1xc0
 162 750 122 828 114 879 c 1
 108 917 106 949 106 978 c 0
 106 1027 107 1065 112 1113 c 1
 127 1085 141 1059 185 1050 c 9
 747 1050 l 17
 859 1050 975 1014 975 654 c 1xc0
 975 462 971 416 971 310 c 1
 971 144 951 -222 915 -422 c 1
 899 -498 869 -603 825 -651 c 9xa0
 825 543 l 17
 825 661 785 750 705 750 c 9
 281 750 l 1xc0
EndSplineSet
Validated: 1
EndChar

StartChar: afii57675
Encoding: 1499 1499 12
Width: 1084
VWidth: 1238
Flags: W
TeX: 128 0
HStem: 0 300<111.043 735.451> 750 300<206.185 825.431>
VStem: 888 118<397.996 678.52>
AnchorPoint: "puncta" 500 0 basechar 0
LayerCount: 2
Fore
SplineSet
757 750 m 2
 320 750 l 2
 234 750 164 817 153 885 c 1
 147 923 145 955 145 984 c 0
 145 1033 151 1068 151 1119 c 1
 166 1092 179 1059 223 1050 c 9
 731 1050 l 17
 852 1050 900 992 953 874 c 1
 993 769 1006 703 1006 585 c 2
 1006 572 l 2
 1006 427 989 354 927 230 c 1
 895 171 741 0 611 0 c 1
 96 0 l 1
 87 0 84 37 84 56 c 0
 84 137 108 300 138 300 c 9
 494 300 l 2
 599 300 743 322 743 322 c 17
 795 348 835 374 861 427 c 0
 874 453 888 506 888 532 c 0
 888 610 827 750 757 750 c 2
EndSplineSet
Validated: 1
EndChar

StartChar: afii57676
Encoding: 1500 1500 13
Width: 1141
VWidth: 1334
Flags: W
TeX: 128 0
HStem: 750 300<279.384 882.824>
VStem: 68 79<1302.45 1549.54> 479 145<72.5747 213.583> 888 161<521.823 850.5>
AnchorPoint: "puncta" 556 0 basechar 0
LayerCount: 2
Fore
SplineSet
920 1050 m 16
 990 1050 1049 933 1049 768 c 0
 1049 696 1039 614 1018 530 c 1
 964 391 653 298 624 174 c 1
 624 96 693 116 693 73 c 0
 693 65 688 54 678 42 c 1
 649 24 607 -8 566 -8 c 0
 539 -8 511 7 488 50 c 1
 488 53 479 68 479 95 c 0
 479 145 508 236 674 366 c 1
 749 446 852 460 888 634 c 1
 888 742 872 736 824 750 c 1
 202 750 l 1
 138 952 68 1166 68 1400 c 1
 68 1410 80 1458 105 1554 c 9
 25 1575 l 1
 -33 1608 -67 1674 -67 1727 c 0
 -67 1743 -64 1758 -56 1771 c 1
 -18 1873 16 1938 82 2018 c 1
 78 2000 71 1969 71 1941 c 0
 71 1918 75 1897 90 1884 c 9
 210 1813 l 18
 237 1798 248 1770 248 1737 c 0
 248 1628 147 1546 147 1472 c 2
 147 1463 l 1
 194 1256 220 1131 322 1050 c 9
 920 1050 l 16
EndSplineSet
Validated: 1
EndChar

StartChar: afii57677
Encoding: 1501 1501 14
Width: 1107
VWidth: 1249
Flags: W
TeX: 128 0
HStem: 0 302<337 877> 752 298<337 873.265>
VStem: 205 132<309.19 752> 877 116<302 748.969>
AnchorPoint: "puncta" 549 0 basechar 0
LayerCount: 2
Fore
SplineSet
337 752 m 25
 337 302 l 25
 877 302 l 25
 877 702 l 17
 871 736 853 752 800 752 c 9
 337 752 l 25
205 752 m 1
 140 785 115 834 115 891 c 0
 115 985 179 1097 231 1176 c 1
 229 1158 227 1141 227 1125 c 0
 227 1081 239 1050 285 1050 c 9
 807 1050 l 17
 969 1050 993 912 993 752 c 9
 993 0 l 25
 151 0 l 17
 177 228 205 435 205 752 c 1
EndSplineSet
Validated: 1
EndChar

StartChar: afii57678
Encoding: 1502 1502 15
Width: 1125
VWidth: 1334
Flags: W
TeX: 128 0
HStem: 0 300<413.308 931> 758 302<172.817 354.455 543.926 799.797>
VStem: 110 314<821.252 1035.72> 931 105<300 630.266>
AnchorPoint: "puncta" 600 0 basechar 0
LayerCount: 2
Fore
SplineSet
355 758 m 9
 287 758 l 1
 200 758 132 828 119 889 c 1
 112 927 110 959 110 988 c 0
 110 1037 111 1076 116 1123 c 1
 132 1090 145 1069 190 1060 c 9
 326 1060 l 17
 392 1060 424 979 424 886 c 1
 424 858 424 831 421 803 c 0
 419 790 414 754 407 736 c 1
 432 747 451 762 469 778 c 1
 534 848 531 981 551 1066 c 1
 998 1066 1036 746 1036 421 c 0
 1036 353 1034 285 1034 219 c 0
 1034 140 1033 66 1033 0 c 9
 343 0 l 17
 357 134 377 195 417 300 c 1
 931 300 l 1
 931 313 931 326 931 338 c 0
 931 584 924 744 627 744 c 0
 563 744 467 708 385 680 c 1
 364 669 356 560 356 516 c 0
 356 492 357 471 357 448 c 0
 357 420 356 389 349 348 c 1
 317 170 253 68 211 24 c 1
 189 6 167 3 145 0 c 1
 235 282 193 550 355 758 c 9
EndSplineSet
Validated: 1
EndChar

StartChar: afii57679
Encoding: 1503 1503 16
Width: 621
VWidth: 1160
Flags: W
TeX: 128 0
VStem: 119 114<1196.48 1338.11> 233 152<-280.08 697.491> 296 38<1060 1329.33> 394 113<1183.48 1325.11>
AnchorPoint: "puncta" 304 0 basechar 0
LayerCount: 2
Fore
SplineSet
442 1032 m 1xb0
 483 1006 515 965 515 930 c 1
 522 892 524 860 524 832 c 0
 524 782 518 742 518 696 c 1
 499 717 488 741 444 750 c 9
 360 750 l 17
 360 663 385 405 385 210 c 1
 385 -201 302 -614 302 -614 c 1
 302 -614 233 -201 233 210 c 1x50
 233 405 260 657 260 743 c 1
 133 743 130 833 115 888 c 1
 108 927 106 958 106 987 c 0
 106 1037 112 1071 112 1122 c 1
 133 1090 141 1068 185 1059 c 1
 174 1118 158 1195 157 1196 c 1
 135 1206 119 1233 119 1266 c 0
 119 1307 144 1340 175 1340 c 0
 207 1340 233 1307 233 1266 c 0
 233 1234 208 1206 187 1195 c 1
 187 1189 204 1109 216 1060 c 1
 296 1060 l 1
 296 1316 l 1
 273 1326 257 1354 257 1387 c 0
 257 1428 283 1461 314 1461 c 0
 345 1461 371 1428 371 1387 c 0
 371 1355 355 1328 334 1317 c 1
 334 1058 l 1
 356 1058 391 1055 410 1047 c 1
 432 1183 l 1
 410 1193 394 1220 394 1253 c 0
 394 1294 419 1327 451 1327 c 0
 482 1327 507 1294 507 1253 c 0
 507 1221 483 1193 461 1182 c 1
 442 1032 l 1xb0
EndSplineSet
Validated: 1
EndChar

StartChar: afii57680
Encoding: 1504 1504 17
Width: 697
VWidth: 1334
Flags: W
TeX: 128 0
HStem: 0 300<127 497>
VStem: 189 341<808.007 1023.64> 189 113<1202.48 1344.11> 339 38<1050 1338.33> 421 80<605.802 749.119> 433 113<1200.48 1342.06>
AnchorPoint: "puncta" 344 0 basechar 0
LayerCount: 2
Fore
SplineSet
479 1030 m 1xb4
 513 1000 530 938 530 872 c 1xc0
 530 849 521 830 517 808 c 1
 511 776 501 752 501 723 c 0
 501 713 502 703 505 692 c 8
 548 535 659 467 659 304 c 24
 659 172 611 94 511 0 c 9
 49 0 l 17
 108 94 127 196 127 300 c 9
 497 300 l 17
 431 395 421 497 421 604 c 0
 421 652 421 701 421 750 c 9x88
 366 750 l 1
 279 750 211 810 198 879 c 1
 191 917 189 949 189 978 c 0xc0
 189 1027 190 1066 195 1113 c 1
 211 1090 222 1064 257 1053 c 1
 246 1114 228 1201 227 1202 c 1
 205 1212 189 1239 189 1272 c 0
 189 1313 214 1346 245 1346 c 0
 277 1346 302 1313 302 1272 c 0
 302 1240 278 1212 257 1201 c 1
 257 1195 278 1101 289 1050 c 1
 339 1050 l 1
 339 1325 l 1
 316 1335 300 1363 300 1396 c 0
 300 1437 326 1470 357 1470 c 0
 388 1470 414 1437 414 1396 c 0
 414 1364 398 1337 377 1326 c 1
 377 1050 l 1
 430 1050 l 1
 436 1050 443 1049 448 1048 c 1
 471 1200 l 1
 449 1210 433 1236 433 1270 c 0
 433 1310 458 1344 490 1344 c 0
 521 1344 546 1310 546 1270 c 0
 546 1238 522 1210 500 1198 c 1
 479 1030 l 1xb4
EndSplineSet
Validated: 1
EndChar

StartChar: afii57681
Encoding: 1505 1505 18
Width: 1107
VWidth: 1334
Flags: W
TeX: 128 0
HStem: 0 300<493.281 738.709> 750 300<164.003 315 389 897.634>
VStem: 303 86<421.937 749.889> 911 104<455.111 844.5>
AnchorPoint: "puncta" 550 0 basechar 0
LayerCount: 2
Fore
SplineSet
389 551 m 0
 389 442 488 300 605 300 c 1
 849 300 911 508 911 628 c 1
 911 695 894 750 833 750 c 9
 389 750 l 25
 389 672 389 557 389 551 c 0
283 750 m 1
 196 750 129 808 115 879 c 1
 108 917 106 949 106 978 c 1
 106 1024 106 1070 112 1113 c 1
 130 1084 141 1059 186 1050 c 9
 767 1050 l 17
 932 1050 1015 933 1015 756 c 1
 1015 371 875 0 573 0 c 1
 385 0 303 280 303 480 c 9
 303 704 l 17
 303 722 304 748 315 750 c 9
 283 750 l 1
EndSplineSet
Validated: 1
EndChar

StartChar: afii57682
Encoding: 1506 1506 19
Width: 1107
VWidth: 1334
Flags: W
TeX: 128 0
HStem: 750 300<181.512 190 213.531 273 311 334 740.459 868>
VStem: 116 113<1203.48 1345.11> 120 341<811.67 1026.13> 273 38<1053 1337.35> 334 77<597.48 749.869> 375 113<1194.48 1336.06> 670 341<820.841 1020.08>
AnchorPoint: "puncta" 550 0 basechar 0
LayerCount: 2
Fore
SplineSet
273 1050 m 1xd2
 273 1324 l 1
 250 1334 234 1362 234 1396 c 0
 234 1436 260 1470 291 1470 c 0
 322 1470 348 1436 348 1396 c 0
 348 1364 332 1336 311 1326 c 1
 311 1053 l 1
 375 1053 l 1
 413 1194 l 1
 391 1204 375 1230 375 1264 c 0
 375 1304 400 1338 432 1338 c 0
 463 1338 488 1304 488 1264 c 0xd6
 488 1232 464 1204 442 1192 c 1
 408 1036 l 1
 439 1004 461 938 461 875 c 1xa2
 461 841 455 800 446 768 c 1
 431 763 411 728 411 705 c 9
 481 180 l 17
 788 275 868 434 868 750 c 1
 828 750 l 1
 763 750 688 837 678 892 c 1
 672 930 670 962 670 991 c 0
 670 1040 676 1080 676 1126 c 1
 691 1096 704 1059 749 1050 c 9
 911 1050 l 17
 963 1050 1011 978 1011 885 c 1
 1011 859 991 787 986 762 c 1
 949 732 947 701 941 680 c 9
 804 88 l 17
 733 -82 360 -175 76 -292 c 1
 76 -182 92 -66 128 58 c 9
 396 152 l 25
 396 152 334 668 334 750 c 9x8a
 296 750 l 1
 209 750 141 817 128 882 c 1
 122 921 120 953 120 981 c 0xa2
 120 1031 126 1070 126 1116 c 1
 142 1089 158 1053 190 1053 c 1
 176 1120 155 1202 154 1203 c 1
 132 1213 116 1240 116 1273 c 0
 116 1314 141 1347 172 1347 c 0
 204 1347 229 1314 229 1273 c 0
 229 1241 205 1213 184 1202 c 1
 184 1195 212 1099 226 1050 c 1
 273 1050 l 1xd2
EndSplineSet
Validated: 1
EndChar

StartChar: afii57683
Encoding: 1507 1507 20
Width: 1007
VWidth: 1334
Flags: W
TeX: 128 0
HStem: 293 307<233 448> 750 294<169.007 225.001 269.308 745.818>
VStem: 225 223<550 750> 751 150<-177.771 740.944> 751 90<-485.109 1.93018>
AnchorPoint: "puncta" 500 0 basechar 0
LayerCount: 2
Fore
SplineSet
148 320 m 9xf0
 148 430 149 528 188 600 c 1
 188 600 225 722 225 750 c 0
 225 754 226 758 225 758 c 1
 169 781 133 825 125 873 c 1
 119 911 117 943 117 972 c 1
 117 1018 123 1061 123 1107 c 1
 138 1078 152 1053 196 1044 c 9
 673 1044 l 17
 785 1044 901 1008 901 648 c 1xf0
 901 456 897 410 897 304 c 1
 897 138 877 -228 841 -428 c 1
 825 -504 795 -609 751 -657 c 9xe8
 751 537 l 17
 751 571 751 597 751 617 c 0
 751 700 750 691 741 750 c 9
 292 750 l 1
 280 750 233 600 233 600 c 25
 452 600 l 17
 449 583 448 566 448 550 c 0
 448 452 493 369 508 293 c 9
 508 293 319 293 214 293 c 1
 181 280 166 216 136 177 c 1
 144 209 155 249 155 283 c 1
 148 320 l 9xf0
EndSplineSet
Validated: 1
EndChar

StartChar: afii57684
Encoding: 1508 1508 21
Width: 1055
VWidth: 1334
Flags: W
TeX: 128 0
HStem: -232 296<146.526 602.541> 293 307<238 453> 750 300<274.308 785.153>
VStem: 148 305<350.558 599.593> 888 87<194.418 617.074>
AnchorPoint: "puncta" 500 0 basechar 0
LayerCount: 2
Fore
SplineSet
148 64 m 1
 374 64 597 65 766 138 c 1
 873 192 888 243 888 335 c 0
 888 369 888 407 888 452 c 1
 888 564 806 750 696 750 c 9
 297 750 l 1
 285 750 238 600 238 600 c 25
 457 600 l 17
 454 583 453 566 453 550 c 0
 453 452 498 369 513 293 c 9
 513 293 324 293 219 293 c 1
 186 280 171 216 141 177 c 1
 149 209 160 249 160 283 c 1
 153 320 l 1
 150 344 148 369 148 394 c 0
 148 470 163 545 193 600 c 1
 193 600 230 722 230 750 c 1
 174 774 143 810 130 873 c 1
 124 911 122 943 122 972 c 0
 122 1021 128 1064 128 1112 c 1
 144 1086 156 1059 201 1050 c 9
 760 1050 l 17
 872 1050 946 750 946 750 c 17
 964 679 975 545 975 430 c 0
 975 306 956 173 893 36 c 1
 769 -231 424 -232 73 -232 c 1
 118 -104 138 -13 148 64 c 1
EndSplineSet
Validated: 1
EndChar

StartChar: afii57685
Encoding: 1509 1509 22
Width: 1061
VWidth: 1334
Flags: W
TeX: 128 0
HStem: 750 300<191.109 249 286 316 743.463 952> 1204 144<98.8147 142.551>
VStem: 94 114<1204.48 1346.16> 110 333<781.674 1025.86> 249 37<1050 1338.33> 304 57<493.743 705.968> 350 113<1204.98 1345.11> 511 90<-341.842 -230.272> 656 296<750.963 1047.36>
AnchorPoint: "puncta" 500 0 basechar 0
LayerCount: 2
Fore
SplineSet
203 1050 m 1xe180
 249 1050 l 1
 249 1325 l 1
 227 1335 210 1363 210 1396 c 0
 210 1437 232 1470 263 1470 c 0
 294 1470 324 1437 324 1396 c 0
 324 1364 308 1337 286 1326 c 1
 286 1050 l 1
 343 1050 l 1
 349 1050 355 1049 361 1048 c 1xed80
 388 1204 l 1
 366 1214 350 1240 350 1273 c 0
 350 1314 375 1347 407 1347 c 0
 438 1347 463 1314 463 1273 c 0xc380
 463 1241 439 1215 417 1204 c 1
 391 1033 l 1
 425 1005 443 945 443 878 c 1xd180
 443 832 435 788 421 747 c 1
 413 726 361 686 361 652 c 0xc580
 361 509 463 300 463 300 c 1xc380
 646 699 l 1
 651 712 656 746 656 782 c 0
 656 808 654 835 646 857 c 1
 646 946 647 1050 717 1050 c 1
 966 1050 l 1
 956 1029 952 937 952 860 c 0
 952 808 954 763 957 750 c 1
 896 750 847 750 818 750 c 0
 808 750 801 750 796 750 c 1
 771 735 746 715 718 669 c 1
 582 466 544 367 487 249 c 1
 546 88 601 -56 601 -212 c 0
 601 -335 558 -466 511 -609 c 1
 511 -204 304 295 304 627 c 0xc580
 304 671 307 712 316 750 c 9
 278 750 l 1
 162 750 110 795 110 885 c 1
 110 945 110 1073 110 1119 c 1xd180
 123 1095 134 1068 165 1055 c 1
 153 1119 133 1204 132 1204 c 1
 110 1214 94 1242 94 1274 c 0
 94 1316 120 1348 150 1348 c 0
 182 1348 208 1316 208 1274 c 0
 208 1242 184 1214 162 1204 c 1
 162 1197 190 1099 203 1050 c 1xe180
EndSplineSet
Validated: 1
EndChar

StartChar: afii57686
Encoding: 1510 1510 23
Width: 1073
VWidth: 1334
Flags: W
TeX: 128 0
HStem: 0 300<154.448 711> 750 300<231.126 292 330 391 676.057 951>
VStem: 145 338<787.711 1028.22> 186 30<1096.44 1190.78> 292 38<1050 1321.33> 385 113<1172.48 1314.16> 646 305<790 1043.91>
AnchorPoint: "puncta" 550 0 basechar 0
LayerCount: 2
Fore
SplineSet
429 1036 m 1xde
 464 1011 483 957 483 890 c 1
 483 877 483 866 483 855 c 0
 483 829 480 805 471 762 c 1
 498 720 545 680 568 662 c 1
 646 790 l 1
 646 862 l 1
 646 951 647 1050 716 1050 c 1
 965 1050 l 1
 955 1029 951 942 951 865 c 0
 951 813 953 763 957 750 c 1
 918 750 831 750 769 750 c 0
 746 750 726 750 715 750 c 0
 709 750 705 750 703 750 c 0
 699 749 654 675 636 608 c 1
 853 406 942 261 942 160 c 0
 942 85 893 33 811 0 c 9
 76 0 l 17
 106 87 140 162 156 300 c 9
 711 300 l 25
 711 300 399 739 391 750 c 9
 316 750 l 1
 200 750 145 807 145 897 c 1
 145 958 145 1073 145 1119 c 1xe2
 161 1100 172 1067 206 1054 c 1
 198 1113 186 1181 186 1182 c 1
 164 1192 148 1218 148 1252 c 0
 148 1292 173 1326 204 1326 c 0
 236 1326 261 1292 261 1252 c 0
 261 1220 237 1192 216 1180 c 1
 216 1175 230 1101 239 1050 c 1
 292 1050 l 1
 292 1308 l 1
 269 1318 253 1346 253 1379 c 0
 253 1420 279 1453 310 1453 c 0
 341 1453 367 1420 367 1379 c 0
 367 1347 351 1320 330 1309 c 1
 330 1050 l 1
 381 1050 l 1
 387 1050 392 1049 398 1049 c 1
 423 1172 l 1
 401 1182 385 1210 385 1242 c 0
 385 1284 410 1316 442 1316 c 0
 473 1316 498 1284 498 1242 c 0
 498 1210 474 1182 452 1172 c 1
 429 1036 l 1xde
EndSplineSet
Validated: 1
EndChar

StartChar: afii57687
Encoding: 1511 1511 24
Width: 1081
VWidth: 1334
Flags: W
TeX: 128 0
HStem: 750 300<164.607 232 270 816.25>
VStem: 194 150<-343.426 364.061> 194 112<1250.57 1392.54> 232 38<1050 1264.18> 829 159<460.507 861>
AnchorPoint: "puncta" 500 0 basechar 0
LayerCount: 2
Fore
SplineSet
270 1050 m 1x98
 832 1050 l 1
 952 1050 988 969 988 753 c 1
 988 201 677 216 448 69 c 1
 446 68 445 68 444 68 c 0
 439 68 436 73 436 80 c 0
 436 94 444 116 454 126 c 1
 673 285 829 234 829 642 c 1
 829 748 760 741 721 750 c 9
 284 750 l 1
 197 750 130 807 116 879 c 1
 110 917 108 949 108 978 c 0
 108 1027 114 1067 114 1113 c 1
 130 1083 141 1050 187 1050 c 1
 232 1050 l 1
 232 1250 l 1x98
 210 1260 194 1288 194 1320 c 0
 194 1362 218 1394 250 1394 c 0
 282 1394 306 1362 306 1320 c 0xa8
 306 1288 292 1262 270 1250 c 1
 270 1050 l 1x98
330 -188 m 1
 318 -290 306 -397 286 -491 c 1
 279 -522 269 -563 246 -586 c 1
 248 -572 248 -556 248 -538 c 0
 248 -379 194 -78 194 144 c 1
 194 209 232 422 274 483 c 1
 274 482 279 469 279 468 c 0
 284 432 337 201 337 132 c 1
 342 91 344 53 344 15 c 0xc8
 344 -58 337 -128 330 -188 c 1
EndSplineSet
Validated: 1
EndChar

StartChar: afii57688
Encoding: 1512 1512 25
Width: 1140
VWidth: 1334
Flags: W
TeX: 128 0
HStem: 750 300<165.828 864.917>
VStem: 945 112<337.364 668.589>
AnchorPoint: "puncta" 500 0 basechar 0
LayerCount: 2
Fore
SplineSet
283 750 m 1
 196 750 128 810 115 879 c 1
 108 917 106 949 106 978 c 0
 106 1027 112 1068 112 1113 c 1
 127 1083 141 1059 185 1050 c 9
 785 1050 l 17
 971 1050 1057 882 1057 572 c 1
 1057 338 1018 110 931 0 c 1
 931 157 945 308 945 516 c 1
 945 706 821 750 733 750 c 9
 283 750 l 1
EndSplineSet
Validated: 1
EndChar

StartChar: afii57689
Encoding: 1513 1513 26
Width: 1449
VWidth: 1334
Flags: W
TeX: 128 0
VStem: 244 115<1241.99 1382.68> 280 73<318 706.917 1243.67 1309.46> 280 23<1057 1240.86> 367 114<1384.53 1538.44> 463 113<1196.48 1338.11> 1013 339<808.464 982.922>
AnchorPoint: "puncta" 750 0 basechar 0
LayerCount: 2
Fore
SplineSet
409 976 m 1x8c
 430 958 440 931 440 898 c 0
 440 864 430 825 410 782 c 1
 362 707 353 597 353 489 c 0x4c
 353 429 356 370 356 318 c 1
 356 318 713 712 713 726 c 1
 649 764 l 1
 582 802 551 849 551 899 c 0
 551 925 559 951 574 977 c 1
 604 1029 663 1129 686 1169 c 1
 691 1141 680 1102 714 1072 c 9
 855 991 l 17
 884 975 897 947 897 914 c 0
 897 881 885 833 861 803 c 1
 849 786 800 728 774 698 c 1
 408 294 l 1
 432 290 457 289 483 289 c 0
 643 289 835 349 942 414 c 9
 1161 720 l 1
 1086 764 1013 842 1013 905 c 0
 1013 926 1018 948 1029 968 c 1
 1060 1020 1118 1120 1141 1159 c 1
 1146 1132 1136 1093 1170 1063 c 9
 1310 982 l 17
 1339 965 1352 938 1352 904 c 0
 1352 871 1340 833 1317 793 c 1
 1310 782 1305 772 1299 763 c 0
 1286 740 1253 707 1224 674 c 1
 1085 516 1024 345 898 198 c 1
 769 37 506 28 280 0 c 1x24
 280 625 l 1x44
 280 625 319 711 322 726 c 9
 202 785 l 1
 137 831 106 879 106 929 c 0
 106 943 109 958 114 973 c 1
 144 1025 202 1125 225 1164 c 1
 230 1137 220 1098 254 1068 c 1
 280 1057 l 1
 280 1241 l 1x24
 258 1251 244 1278 244 1311 c 0
 244 1352 269 1385 300 1385 c 0
 332 1385 359 1352 359 1311 c 0x84
 359 1279 333 1251 312 1241 c 1
 311 1240 303 1114 303 1039 c 1
 328 1025 l 1
 406 1383 l 1
 383 1393 367 1421 367 1454 c 0
 367 1495 401 1545 432 1545 c 0
 463 1545 481 1495 481 1454 c 0x34
 481 1422 465 1395 444 1384 c 1
 359 1007 l 1
 374 999 l 1
 501 1196 l 1
 479 1206 463 1233 463 1266 c 0
 463 1307 488 1340 519 1340 c 0
 551 1340 576 1307 576 1266 c 0
 576 1234 552 1206 530 1195 c 1
 409 976 l 1x8c
EndSplineSet
Validated: 1
EndChar

StartChar: afii57690
Encoding: 1514 1514 27
Width: 1160
VWidth: 1334
Flags: W
TeX: 128 0
HStem: 0 300<163 362> 750 300<186.829 271 345 912.854>
VStem: 247 73<512.653 748.748> 965 112<337.364 681.543>
AnchorPoint: "puncta" 564 0 basechar 0
LayerCount: 2
Fore
SplineSet
331 722 m 17
 325 691 320 665 320 640 c 0
 320 618 324 597 333 574 c 1
 375 411 521 355 521 162 c 1
 521 64 425 26 399 0 c 9
 101 0 l 25
 163 300 l 25
 362 300 l 17
 301 370 247 451 247 584 c 0
 247 633 254 689 271 754 c 1
 197 767 148 824 135 880 c 1
 128 918 126 950 126 978 c 0
 126 1028 132 1067 132 1113 c 1
 148 1087 161 1059 205 1050 c 9
 805 1050 l 17
 991 1050 1077 882 1077 572 c 1
 1077 338 1038 110 951 0 c 1
 951 157 965 308 965 516 c 1
 928 711 911 750 823 750 c 1
 345 750 l 1
 331 722 l 17
EndSplineSet
Validated: 1
EndChar

StartChar: exclam
Encoding: 33 33 29
Width: 442
VWidth: 1408
Flags: W
TeX: 133 0
VStem: 98 240<850.033 953.369>
LayerCount: 2
Fore
SplineSet
204 244 m 25
 296 116 l 25
 202 0 l 25
 112 120 l 25
 204 244 l 25
228 1136 m 25
 338 926 l 25
 231 359 l 17
 163 359 l 9
 98 938 l 25
 228 1136 l 25
EndSplineSet
Validated: 1
EndChar

StartChar: quotedbl
Encoding: 34 34 30
Width: 723
VWidth: 1571
Flags: W
TeX: 148 0
HStem: 801 554
VStem: 390 171<1000.42 1196.53>
LayerCount: 2
Fore
SplineSet
408 801 m 1
 389 814 390 829 390 841 c 0
 390 841 407 1156 469 1322 c 1
 485 1344 508 1355 541 1355 c 0
 561 1355 579 1351 594 1343 c 1
 613 1322 624 1298 624 1270 c 0
 624 1219 564 1133 561 1103 c 1
 450 855 459 801 408 801 c 1
121 801 m 1
 101 812 100 833 100 841 c 0
 100 851 101 862 104 873 c 0
 104 873 125 1177 179 1322 c 1
 194 1344 219 1355 251 1355 c 0
 271 1355 288 1351 303 1343 c 1
 324 1322 333 1298 333 1270 c 0
 333 1215 274 1137 271 1103 c 1
 165 865 168 801 121 801 c 1
EndSplineSet
Validated: 1
EndChar

StartChar: percent
Encoding: 37 37 31
Width: 1564
VWidth: 1352
Flags: W
TeX: 147 0
HStem: -15 158<1111.55 1348.68> 285 167<228.048 476.577> 503 149<1074.98 1310.82> 796 154<202.633 435.064>
VStem: 100 67<548.893 778.863> 497 77<477.824 725.584> 969 78<215.015 489.213> 1374 90<158.418 436.214>
LayerCount: 2
Fore
SplineSet
103 527 m 1
 103 563 100 599 100 647 c 0
 100 820 190 907 234 928 c 1
 261 943 290 950 321 950 c 0
 463 950 539 858 558 761 c 0
 569 705 574 649 574 592 c 0
 574 490 544 386 492 338 c 0
 448 299 430 285 371 285 c 0
 320 285 269 304 244 313 c 0
 199 328 116 394 103 527 c 1
1056 935 m 1
 1020 849 974 749 919 638 c 2
 750 298 l 1
 695 183 652 86 621 7 c 1
 477 7 l 1
 630 324 l 1
 937 935 l 1
 1056 935 l 1
1464 300 m 0
 1464 170 1398 -15 1250 -15 c 0
 1200 -15 1095 7 1036 74 c 0
 1006 108 969 176 969 320 c 0
 969 384 979 421 998 470 c 1
 1040 599 1090 635 1166 647 c 1
 1179 651 1194 652 1210 652 c 0
 1247 652 1339 645 1393 553 c 1
 1440 477 1464 393 1464 300 c 0
497 591 m 0
 497 729 413 796 328 796 c 2
 297 796 l 2
 287 796 276 795 265 796 c 1
 204 796 206 793 187 758 c 1
 173 736 167 708 167 670 c 0
 167 616 182 578 222 506 c 0
 242 470 278 452 331 452 c 2
 367 452 l 2
 377 451 386 451 394 451 c 0
 458 451 468 470 477 488 c 0
 490 519 497 553 497 591 c 0
1343 159 m 1
 1364 194 1374 237 1374 285 c 0
 1374 431 1288 481 1270 488 c 0
 1247 498 1217 503 1181 503 c 2
 1144 503 l 1
 1096 487 1076 506 1060 457 c 0
 1052 436 1047 408 1047 372 c 0
 1047 348 1055 301 1065 255 c 1
 1083 188 1160 143 1250 143 c 0
 1282 143 1313 149 1343 159 c 1
EndSplineSet
Validated: 1
EndChar

StartChar: numbersign
Encoding: 35 35 32
Width: 1001
VWidth: 1411
Flags: W
TeX: 144 0
HStem: 445 98<100 265 391 581 697 863> 748 101<139 318 431 621 737 902>
LayerCount: 2
Fore
SplineSet
902 748 m 1
 724 748 l 1
 697 543 l 1
 863 543 l 1
 863 445 l 1
 684 445 l 1
 634 99 l 1
 533 99 l 1
 581 445 l 1
 367 445 l 1
 318 99 l 1
 213 99 l 1
 265 445 l 1
 100 445 l 1
 100 543 l 1
 290 543 l 1
 318 748 l 1
 139 748 l 1
 139 849 l 1
 328 849 l 1
 381 1168 l 1
 481 1168 l 1
 431 849 l 1
 634 849 l 1
 684 1168 l 1
 785 1168 l 1
 737 849 l 1
 902 849 l 1
 902 748 l 1
621 748 m 1
 417 748 l 1
 391 543 l 1
 596 543 l 1
 621 748 l 1
EndSplineSet
Validated: 1
EndChar

StartChar: dollar
Encoding: 36 36 33
Width: 901
VWidth: 1385
Flags: W
TeX: 131 0
HStem: 76 177<146.281 219.418> 879 168<611.52 711.057>
VStem: 115 143<781.628 972.039> 407 75<-41.4688 26.2075 113 438 728 1012 1096.05 1162.81> 640 162<174.233 357.619>
LayerCount: 2
Fore
SplineSet
802 322 m 0
 802 133 627 27 471 27 c 1
 476 10 478 -1 478 -8 c 0
 478 -30 450 -44 429 -44 c 0
 411 -44 399 -34 399 -20 c 1
 402 -4 403 9 403 15 c 0
 403 19 402 20 402 24 c 1
 311 40 190 44 115 76 c 1
 105 85 100 95 100 105 c 0
 100 157 115 206 146 253 c 1
 152 259 158 259 163 253 c 1
 267 171 316 142 407 113 c 1
 407 474 l 1
 121 632 115 752 115 821 c 0
 115 949 191 1037 282 1060 c 1
 329 1074 369 1083 402 1090 c 0
 403 1090 403 1101 403 1122 c 0
 403 1154 431 1165 454 1165 c 0
 460 1165 466 1164 471 1163 c 1
 478 1159 482 1151 482 1138 c 0
 482 1133 481 1124 481 1114 c 1
 479 1103 478 1097 479 1096 c 0
 527 1076 633 1070 709 1047 c 1
 724 1038 731 1031 731 1026 c 0
 731 969 716 919 685 879 c 1
 626 899 557 973 482 1012 c 1
 482 673 l 1
 615 615 802 503 802 322 c 0
407 1019 m 1
 293 979 258 953 258 890 c 0
 258 793 339 740 407 728 c 1
 407 1019 l 1
486 102 m 1
 618 124 640 211 640 249 c 0
 640 313 608 362 528 421 c 1
 486 438 l 1
 486 102 l 1
EndSplineSet
Validated: 1
EndChar

StartChar: ampersand
Encoding: 38 38 34
Width: 1372
VWidth: 1419
Flags: W
TeX: 128 0
HStem: 83 128<942.66 1135.16> 92 93<346.877 589.823> 782 25<853 896.901 1163.46 1195> 1161 66<557.266 725.972>
VStem: 100 171<261.079 503.987> 365 130<832.482 1111.47> 754 85<917.043 1141.87>
LayerCount: 2
Fore
SplineSet
1083 211 m 0xbe
 1173 211 1214 268 1233 297 c 1
 1272 272 l 1
 1220 196 1133 83 998 83 c 0xbe
 949 83 867 93 751 235 c 1
 669 160 526 92 379 92 c 0x7e
 249 92 100 146 100 360 c 0
 100 460 160 553 278 640 c 1
 420 731 l 1
 374 859 365 925 365 974 c 0
 365 1160 536 1227 628 1227 c 0
 707 1227 839 1181 839 997 c 1
 828 868 701 774 600 731 c 1
 801 399 l 1
 927 589 l 2
 939 607 957 643 957 687 c 0
 957 748 913 771 853 782 c 1
 853 807 l 1
 1195 807 l 1
 1195 782 l 1
 1113 751 1085 742 1057 691 c 1
 853 360 l 1
 852 358 851 355 851 352 c 0
 851 309 973 211 1083 211 c 0xbe
558 792 m 1
 654 849 754 907 754 1051 c 0
 754 1117 712 1161 649 1161 c 0
 575 1161 495 1103 495 997 c 0
 495 897 532 854 558 792 c 1
271 404 m 0
 271 269 353 185 477 185 c 0x7e
 566 185 634 225 700 283 c 1
 445 666 l 1
 351 603 271 509 271 404 c 0
EndSplineSet
Validated: 1
EndChar

StartChar: quotesingle
Encoding: 39 39 35
Width: 408
VWidth: 1600
Flags: W
TeX: 148 0
HStem: 971 375
VStem: 169 139<1083.88 1209.13>
LayerCount: 2
Fore
SplineSet
110 980 m 1
 110 1026 169 1045 169 1113 c 0
 169 1130 162 1151 146 1176 c 2
 100 1247 l 1
 105 1262 l 1
 208 1346 l 1
 237 1343 l 1
 304 1272 308 1214 308 1187 c 0
 308 1108 205 1012 137 971 c 1
 125 967 117 970 110 980 c 1
EndSplineSet
Validated: 1
EndChar

StartChar: parenleft
Encoding: 40 40 36
Width: 627
VWidth: 1492
Flags: W
TeX: 147 0
VStem: 100 197<298.671 814.191>
LayerCount: 2
Fore
SplineSet
501 1243 m 1
 339 1038 297 763 297 572 c 0
 297 329 361 121 410 30 c 1
 437 -24 460 -63 481 -88 c 1
 528 -151 l 1
 504 -180 l 1
 464 -173 435 -140 415 -128 c 1
 265 23 100 262 100 558 c 0
 100 560 100 563 100 566 c 0
 100 623 104 826 276 1059 c 1
 328 1133 391 1202 465 1269 c 1
 501 1243 l 1
EndSplineSet
Validated: 1
EndChar

StartChar: parenright
Encoding: 41 41 37
Width: 610
VWidth: 1497
Flags: W
TeX: 147 0
VStem: 318 193<273.539 800.883>
LayerCount: 2
Fore
SplineSet
511 515 m 0
 511 399 484 305 422 162 c 1
 338 8 242 -96 139 -169 c 1
 100 -155 l 1
 104 -138 117 -114 137 -83 c 1
 204 33 l 1
 239 101 318 328 318 578 c 0
 318 758 286 900 224 1029 c 1
 214 1060 196 1098 168 1143 c 2
 108 1240 l 1
 117 1272 l 1
 121 1281 126 1286 131 1286 c 0
 141 1286 158 1273 184 1247 c 1
 294 1127 l 1
 345 1068 511 838 511 515 c 0
EndSplineSet
Validated: 1
EndChar

StartChar: asterisk
Encoding: 42 42 38
Width: 852
VWidth: 1516
Flags: W
TeX: 128 0
HStem: 612 623
VStem: 326 163<1075.04 1218.3>
LayerCount: 2
Fore
SplineSet
741 978 m 1
 735 964 752 945 752 926 c 1
 747 911 l 1
 509 911 l 1
 492 880 l 1
 672 736 l 1
 674 730 675 725 675 720 c 0
 675 696 649 683 612 659 c 1
 552 615 538 614 516 612 c 1
 500 645 486 682 475 723 c 2
 442 847 l 1
 439 849 431 851 420 851 c 1
 396 777 340 657 333 626 c 1
 328 619 323 616 318 616 c 1
 303 620 294 623 289 626 c 2
 171 707 l 1
 171 736 l 1
 198 759 228 783 264 810 c 2
 365 887 l 1
 365 903 362 912 358 914 c 1
 121 914 l 1
 119 913 116 913 114 913 c 0
 106 913 102 920 102 932 c 0
 102 970 139 1056 164 1094 c 1
 190 1088 l 1
 373 974 l 1
 384 977 393 986 405 992 c 1
 387 1032 355 1114 326 1197 c 1
 326 1208 332 1217 341 1226 c 1
 369 1232 398 1235 426 1235 c 0
 441 1235 453 1235 463 1234 c 0
 474 1234 494 1232 523 1227 c 1
 530 1221 l 1
 518 1163 505 1136 489 1079 c 1
 489 1078 489 1077 489 1076 c 0
 489 1056 462 1011 462 1000 c 0
 462 989 471 978 489 969 c 1
 689 1101 l 1
 707 1083 726 1034 741 978 c 1
EndSplineSet
Validated: 1
EndChar

StartChar: plus
Encoding: 43 43 39
Width: 1121
VWidth: 1339
Flags: W
TeX: 147 0
HStem: 375 116<100 503 613 1021>
VStem: 503 110<-43 375 491 908>
LayerCount: 2
Fore
SplineSet
1021 375 m 1
 613 375 l 1
 613 -43 l 1
 503 -43 l 1
 503 375 l 1
 100 375 l 1
 100 491 l 1
 503 491 l 1
 503 908 l 1
 613 908 l 1
 613 491 l 1
 1021 491 l 1
 1021 375 l 1
EndSplineSet
Validated: 1
EndChar

StartChar: comma
Encoding: 44 44 40
Width: 403
VWidth: 1169
Flags: W
TeX: 130 0
HStem: -235 384
VStem: 163 140<-112.533 11.5156>
LayerCount: 2
Fore
SplineSet
101 -221 m 1
 103 -172 163 -154 163 -88 c 0
 163 -64 155 -41 139 -19 c 2
 101 37 l 1
 101 63 l 1
 118 76 137 92 158 107 c 1
 210 149 l 1
 213 150 215 150 218 150 c 0
 239 150 249 126 281 76 c 1
 296 56 303 28 303 -8 c 0
 303 -55 265 -111 221 -158 c 1
 192 -191 160 -217 126 -235 c 1
 114 -237 106 -233 101 -221 c 1
EndSplineSet
Validated: 1
EndChar

StartChar: hyphen
Encoding: 45 45 41
Width: 787
VWidth: 1383
Flags: W
TeX: 137 0
HStem: 433 243<160.47 583>
VStem: 100 589<506.966 609.029>
LayerCount: 2
Fore
SplineSet
640 676 m 1
 664 671 689 665 689 629 c 0
 689 617 686 601 679 580 c 1
 672 557 652 517 619 462 c 1
 583 433 l 1
 155 433 l 2
 103 433 100 458 100 493 c 0
 100 526 155 648 193 667 c 1
 200 669 211 671 224 676 c 1
 640 676 l 1
EndSplineSet
Validated: 1
EndChar

StartChar: period
Encoding: 46 46 42
Width: 390
VWidth: 1196
Flags: W
TeX: 147 0
HStem: -92 251
VStem: 100 190
LayerCount: 2
Fore
SplineSet
290 35 m 1
 196 -92 l 1
 100 35 l 1
 196 159 l 1
 290 35 l 1
EndSplineSet
Validated: 1
EndChar

StartChar: slash
Encoding: 47 47 43
Width: 933
VWidth: 1337
Flags: W
TeX: 151 0
LayerCount: 2
Fore
SplineSet
834 960 m 1
 829 951 822 940 813 929 c 1
 754 835 l 1
 681 716 569 518 457 281 c 1
 290 -77 l 1
 261 -105 224 -119 167 -119 c 0
 155 -119 144 -119 133 -117 c 2
 100 -115 l 1
 108 -86 l 1
 203 60 294 218 382 388 c 1
 650 938 l 1
 670 966 737 969 754 969 c 0
 771 969 787 968 801 967 c 1
 834 960 l 1
EndSplineSet
Validated: 1
EndChar

StartChar: zero
Encoding: 48 48 44
Width: 917
VWidth: 1369
Flags: W
TeX: 160 0
HStem: 3 225<316.973 633.926> 822 203<275.771 623.811>
VStem: 84 91<360.492 781.631> 743 108<297.291 710.566>
LayerCount: 2
Fore
SplineSet
521 1026 m 0
 796 1025 839 811 851 570 c 1
 851 300 726 57 571 19 c 0
 529 8 492 3 458 3 c 0
 193 3 89 236 89 411 c 0
 89 503 84 518 84 564 c 0
 84 797 186 901 222 937 c 0
 280 996 346 1025 420 1025 c 2
 469 1025 l 2
 485 1025 503 1026 521 1026 c 0
437 822 m 0
 407 822 384 818 362 814 c 1
 297 808 175 803 175 709 c 0
 176 693 176 681 176 674 c 0
 176 653 176 632 175 613 c 2
 175 551 l 2
 175 410 211 303 373 247 c 1
 414 235 456 228 500 228 c 0
 574 228 646 246 718 280 c 1
 735 340 743 403 743 467 c 0
 743 688 693 738 630 774 c 0
 573 806 509 822 437 822 c 0
EndSplineSet
Validated: 1
EndChar

StartChar: one
Encoding: 49 49 45
Width: 588
VWidth: 1377
Flags: W
TeX: 146 0
VStem: 300 194<71.832 780>
LayerCount: 2
Fore
SplineSet
39 931 m 1
 54 975 182 945 326 1032 c 1
 494 1032 l 1
 494 88 l 1
 464 37 368 53 300 42 c 1
 300 780 l 1
 200 750 l 2
 141 733 109 725 66 725 c 0
 58 725 49 725 39 726 c 1
 39 931 l 1
EndSplineSet
Validated: 1
EndChar

StartChar: two
Encoding: 50 50 46
Width: 894
VWidth: 1379
Flags: W
TeX: 153 0
HStem: 48 254<365.674 772>
VStem: 542 235<587.198 820.5>
LayerCount: 2
Fore
SplineSet
361 273 m 1
 461 297 542 301 675 302 c 2
 805 302 l 1
 815 293 823 281 823 267 c 1
 772 48 l 1
 71 48 l 1
 59 62 54 82 54 103 c 0
 54 140 68 181 76 205 c 1
 121 232 183 256 243 289 c 1
 343 354 536 512 542 665 c 1
 538 772 437 814 337 827 c 1
 150 774 l 1
 135 787 135 801 145 821 c 0
 177 888 173 1034 284 1034 c 0
 287 1034 289 1034 292 1034 c 1
 458 1036 l 1
 570 1036 647 1024 712 973 c 1
 755 925 l 1
 769 880 777 840 777 801 c 0
 777 738 755 680 698 621 c 2
 361 273 l 1
EndSplineSet
Validated: 1
EndChar

StartChar: three
Encoding: 51 51 47
Width: 901
VWidth: 1373
Flags: W
TeX: 153 0
HStem: 22 150<239.822 592.125> 794 234<232 561>
VStem: 173 592<819 1007> 634 211<204.45 363.743>
LayerCount: 2
Fore
SplineSet
204 233 m 1xd0
 260 203 359 172 450 172 c 0
 493 172 537 180 582 194 c 1
 616 219 630 234 634 263 c 1xd0
 634 416 437 419 367 451 c 1
 357 454 352 461 352 472 c 1
 355 483 357 490 357 495 c 1
 449 616 463 652 561 794 c 1
 182 794 l 1
 176 800 173 808 173 819 c 0
 173 843 200 927 204 940 c 2
 232 1028 l 1
 755 1028 l 1
 762 1024 765 1017 765 1007 c 0xe0
 765 1001 763 995 760 988 c 2
 651 803 l 1
 521 596 l 1
 604 581 845 540 845 346 c 0
 845 175 685 88 626 75 c 1
 550 40 464 22 366 22 c 0
 279 22 169 37 52 83 c 1
 44 88 40 97 40 109 c 0
 40 117 41 122 43 124 c 2
 106 252 l 1
 114 256 122 258 128 258 c 0
 147 258 181 233 204 233 c 1xd0
EndSplineSet
Validated: 1
EndChar

StartChar: four
Encoding: 52 52 48
Width: 969
VWidth: 1383
Flags: W
TeX: 134 0
HStem: 230 227<208 561 742 917> 1035 20G<620 693.5>
VStem: 561 181<56 230 457 906>
LayerCount: 2
Fore
SplineSet
679 1055 m 0
 708 1055 742 1048 742 1019 c 2
 742 457 l 1
 917 457 l 1
 917 235 l 1
 742 235 l 1
 742 56 l 1
 561 56 l 1
 561 230 l 1
 65 230 l 1
 65 242 64 259 64 283 c 0
 64 349 75 388 104 426 c 1
 145 493 211 583 299 695 c 1
 457 898 l 1
 512 1004 561 1055 679 1055 c 0
561 457 m 1
 561 906 l 1
 208 457 l 1
 561 457 l 1
EndSplineSet
Validated: 1
EndChar

StartChar: five
Encoding: 53 53 49
Width: 858
VWidth: 1357
Flags: W
TeX: 134 0
HStem: 4 165<314.929 567.419> 390 203<217.929 534.017> 390 177<215 441.517> 760 184<254.936 738.764> 776 182<211.291 559.064>
VStem: 137 73<567 776> 599 183<190.04 327.098>
LayerCount: 2
Fore
SplineSet
782 330 m 0xc6
 782 262 749 4 383 4 c 0
 255 4 146 33 53 67 c 1
 46 71 43 77 43 85 c 0
 43 96 89 214 122 241 c 1
 232 216 343 192 454 169 c 1
 487 169 522 175 558 186 c 1
 581 205 595 227 599 251 c 1
 599 275 597 288 571 329 c 1
 512 362 416 390 221 390 c 2xc6
 137 390 l 1
 137 845 l 1
 138 851 137 862 137 878 c 2
 137 911 l 2
 137 939 142 945 155 958 c 1xae
 354 958 609 944 723 944 c 1
 743 948 756 943 760 929 c 1
 746 824 745 790 709 760 c 1
 599 760 l 1x96
 215 776 l 1
 212 752 211 732 211 717 c 0
 210 700 210 685 210 673 c 2
 210 619 l 1
 214 595 215 577 215 567 c 1xae
 277 581 371 593 445 593 c 0
 548 593 643 574 707 525 c 1
 754 478 782 409 782 330 c 0xc6
EndSplineSet
Validated: 1
EndChar

StartChar: six
Encoding: 54 54 50
Width: 895
VWidth: 1377
Flags: W
TeX: 151 0
HStem: 27 210<340.515 619.803> 566 132<348 694> 1030 20G<570 594.5>
VStem: 74 175<326.223 541.418> 690 163<257.193 477.701>
LayerCount: 2
Fore
SplineSet
343 630 m 1
 469 669 520 698 593 698 c 0
 795 698 853 504 853 411 c 0
 853 394 l 0
 853 351 852 352 837 309 c 0
 782 146 620 27 428 27 c 0
 406 27 368 32 314 41 c 0
 221 58 74 193 74 377 c 0
 74 405 78 435 87 466 c 1
 100 541 136 621 196 705 c 2
 372 950 l 1
 422 1032 437 1048 482 1048 c 2
 530 1048 l 2
 545 1048 562 1049 578 1050 c 0
 611 1050 643 1046 674 1039 c 1
 501 828 l 1
 343 630 l 1
561 237 m 0
 564 237 l 0
 599 237 690 239 690 363 c 0
 690 526 509 566 413 566 c 0
 283 566 249 520 249 450 c 0
 249 392 280 258 473 239 c 1
 508 239 526 237 561 237 c 0
EndSplineSet
Validated: 1
EndChar

StartChar: seven
Encoding: 55 55 51
Width: 746
VWidth: 1369
Flags: W
TeX: 151 0
HStem: 781 228<89 583>
LayerCount: 2
Fore
SplineSet
748 1009 m 1
 465 195 l 1
 426 58 420 49 393 19 c 1
 355 19 296 22 199 33 c 1
 198 39 196 43 196 49 c 0
 196 73 220 113 355 358 c 2
 494 614 l 2
 543 705 573 761 583 781 c 1
 38 781 l 1
 28 782 23 789 23 803 c 0
 23 810 24 818 26 827 c 1
 89 1009 l 1
 748 1009 l 1
EndSplineSet
Validated: 1
EndChar

StartChar: eight
Encoding: 56 56 52
Width: 894
VWidth: 1376
Flags: W
TeX: 133 0
HStem: 15 174<325.108 639.725> 905 148<270.198 562.881>
VStem: 82 133<285.971 468.29> 117 145<758.608 890.091> 617 134<712.011 923> 662 169<211.706 485.158>
LayerCount: 2
Fore
SplineSet
617 622 m 1xd8
 666 589 831 593 831 376 c 0
 831 211 709 15 458 15 c 0
 285 15 82 127 82 324 c 0xe4
 82 419 135 514 228 553 c 1
 158 597 117 666 117 765 c 0
 117 924 252 1053 458 1053 c 0
 631 1053 751 979 751 867 c 0
 751 754 693 671 617 622 c 1xd8
617 759 m 1xd8
 617 879 466 905 410 905 c 0
 378 905 293 902 269 864 c 1
 264 858 262 851 262 842 c 0
 262 804 309 741 359 716 c 0
 406 692 468 670 547 649 c 1
 589 674 612 710 617 759 c 1xd8
544 189 m 1
 643 194 662 268 662 287 c 0
 662 341 619 394 544 423 c 2
 295 518 l 1
 238 479 215 433 215 388 c 0xe4
 215 323 265 261 330 231 c 0
 395 203 467 189 544 189 c 1
EndSplineSet
Validated: 1
EndChar

StartChar: nine
Encoding: 57 57 53
Width: 830
VWidth: 1380
Flags: W
TeX: 144 0
HStem: 369 125<373.718 507.769> 873 188<253.199 498.808>
VStem: 65 146<655.46 856.387> 609 174<530.435 768.866>
LayerCount: 2
Fore
SplineSet
425 1061 m 0
 623 1061 783 892 783 697 c 0
 783 617 781 592 671 413 c 1
 458 58 l 1
 410 41 326 28 252 28 c 0
 227 28 191 30 204 45 c 0
 264 107 319 169 368 231 c 2
 513 415 l 1
 400 373 378 369 333 369 c 0
 314 369 265 381 237 389 c 0
 192 400 65 511 65 690 c 0
 65 883 212 1061 425 1061 c 0
609 633 m 0
 609 714 555 873 330 873 c 0
 285 873 253 867 236 852 c 1
 219 835 211 820 211 808 c 0
 211 802 215 775 223 728 c 1
 235 661 342 494 537 494 c 1
 585 524 609 570 609 633 c 0
EndSplineSet
Validated: 1
EndChar

StartChar: colon
Encoding: 58 58 54
Width: 390
VWidth: 1386
Flags: W
TeX: 130 0
VStem: 100 190
LayerCount: 2
Fore
SplineSet
290 902 m 1
 196 775 l 1
 100 902 l 1
 196 1027 l 1
 290 902 l 1
290 225 m 1
 196 97 l 1
 100 225 l 1
 196 349 l 1
 290 225 l 1
EndSplineSet
Validated: 1
EndChar

StartChar: semicolon
Encoding: 59 59 55
Width: 404
VWidth: 1352
Flags: W
TeX: 151 0
VStem: 100 182<169.822 237> 164 140<65.2352 241.934>
LayerCount: 2
Fore
SplineSet
290 868 m 1x80
 196 741 l 1
 100 868 l 1
 196 993 l 1
 290 868 l 1x80
164 96 m 0x40
 164 133 149 161 100 220 c 1
 100 237 l 1
 209 325 l 1
 210 325 211 325 212 325 c 0
 233 325 250 303 282 259 c 0x80
 297 238 304 207 304 168 c 0
 304 139 301 105 217 15 c 1
 190 -16 161 -39 131 -56 c 1
 115 -56 108 -53 108 -47 c 1
 125 30 164 33 164 96 c 0x40
EndSplineSet
Validated: 1
EndChar

StartChar: less
Encoding: 60 60 56
Width: 1048
VWidth: 1356
Flags: W
TeX: 142 0
LayerCount: 2
Fore
SplineSet
948 42 m 1
 100 438 l 1
 100 542 l 1
 948 918 l 1
 948 793 l 1
 254 488 l 1
 948 163 l 1
 948 42 l 1
EndSplineSet
Validated: 1
EndChar

StartChar: equal
Encoding: 61 61 57
Width: 1134
VWidth: 1348
Flags: W
TeX: 133 0
HStem: 266 109<100 1035> 543 107<100 1035>
LayerCount: 2
Fore
SplineSet
1035 543 m 1
 100 543 l 1
 100 650 l 1
 1035 650 l 1
 1035 543 l 1
1035 266 m 1
 100 266 l 1
 100 375 l 1
 1035 375 l 1
 1035 266 l 1
EndSplineSet
Validated: 1
EndChar

StartChar: greater
Encoding: 62 62 58
Width: 1048
VWidth: 1356
Flags: W
TeX: 135 0
LayerCount: 2
Fore
SplineSet
948 416 m 1
 100 42 l 1
 100 163 l 1
 793 470 l 1
 100 793 l 1
 100 918 l 1
 948 519 l 1
 948 416 l 1
EndSplineSet
Validated: 1
EndChar

StartChar: question
Encoding: 63 63 59
Width: 524
VWidth: 1392
Flags: W
TeX: 148 0
HStem: 1034 20G<226.5 269.5>
VStem: 93 100<747.136 883.09> 99 79<813.144 896.407> 253 62<463 659> 300 143<741.493 861.37>
LayerCount: 2
Fore
SplineSet
243 1054 m 0xa0
 296 1054 443 937 443 838 c 0xa8
 443 764 349 699 315 636 c 1
 315 467 l 1
 298 460 275 450 269 451 c 1
 253 463 l 1
 253 659 l 1x90
 287 727 l 1
 296 746 300 762 300 775 c 0
 300 824 262 870 194 897 c 1
 183 894 178 890 178 885 c 0xa8
 186 844 193 819 193 803 c 0
 193 767 175 744 156 744 c 0
 154 744 153 744 152 744 c 1
 99 753 93 766 93 813 c 1xc0
 93 815 99 886 99 888 c 0
 99 923 116 970 135 996 c 1
 160 1019 210 1054 243 1054 c 0xa0
372 231 m 1
 278 103 l 1
 179 231 l 1
 278 355 l 1
 372 231 l 1
EndSplineSet
Validated: 1
EndChar

StartChar: at
Encoding: 64 64 60
Width: 1542
VWidth: 1358
Flags: W
TeX: 128 0
HStem: -193 75<610.87 1029.67> 123 71<652.322 793.588 1028.58 1188.12> 746 73<785.735 922.996> 1068 95<612.531 1066.08>
VStem: 100 144<222.083 656.049> 462 158<214.978 557.192> 1359 84<404.537 766.414>
LayerCount: 2
Fore
SplineSet
1443 572 m 0
 1443 545 1440 539 1440 517 c 0
 1440 466 1406 387 1338 281 c 0
 1270 176 1187 123 1091 123 c 0
 955 123 921 180 888 236 c 1
 841 175 761 118 660 118 c 0
 539 118 477 196 470 250 c 0
 466 283 463 306 462 319 c 2
 462 354 l 2
 462 358 462 362 462 367 c 0
 462 423 467 554 591 700 c 1
 640 760 715 819 818 819 c 0
 904 819 950 777 986 721 c 1
 1001 795 l 1
 1141 795 l 1
 1013 249 l 1
 1036 213 1065 194 1101 194 c 0
 1209 194 1359 375 1359 616 c 1
 1318 914 1086 1068 860 1068 c 0
 839 1068 791 1064 715 1057 c 0
 579 1044 332 863 281 631 c 1
 256 529 244 455 244 408 c 0
 244 252 302 125 417 29 c 1
 532 -69 670 -118 833 -118 c 0
 977 -118 1094 -76 1191 -17 c 1
 1219 -82 l 1
 1068 -156 920 -193 778 -193 c 0
 371 -193 100 121 100 448 c 0
 100 601 143 730 230 835 c 0
 488 1146 743 1163 888 1163 c 0
 1076 1163 1215 1100 1306 974 c 0
 1397 848 1443 714 1443 572 c 0
860 746 m 1
 797 746 620 601 620 363 c 0
 620 284 640 197 708 197 c 1
 750 205 898 234 937 489 c 1
 947 532 952 570 952 605 c 0
 952 688 921 735 860 746 c 1
EndSplineSet
Validated: 1
EndChar

StartChar: bracketleft
Encoding: 91 91 61
Width: 596
VWidth: 1319
Flags: W
TeX: 129 0
HStem: -348 62<297 496> 1032 69<297 488>
VStem: 100 197<-286 1032>
LayerCount: 2
Fore
SplineSet
496 -348 m 1
 100 -348 l 1
 100 1101 l 1
 488 1101 l 1
 488 1032 l 1
 297 1032 l 1
 297 -286 l 1
 496 -286 l 1
 496 -348 l 1
EndSplineSet
Validated: 1
EndChar

StartChar: backslash
Encoding: 92 92 62
Width: 719
VWidth: 1434
Flags: W
TeX: 129 0
VStem: 100 520
LayerCount: 2
Fore
SplineSet
620 122 m 1
 479 122 l 1
 100 1270 l 1
 254 1270 l 1
 620 122 l 1
EndSplineSet
Validated: 1
EndChar

StartChar: bracketright
Encoding: 93 93 63
Width: 593
VWidth: 1320
Flags: W
TeX: 129 0
HStem: -346 60<100 297> 1039 62<105 297>
VStem: 297 197<-286 1039>
LayerCount: 2
Fore
SplineSet
494 -346 m 1
 100 -346 l 1
 100 -286 l 1
 297 -286 l 1
 297 1039 l 1
 105 1039 l 1
 105 1101 l 1
 494 1101 l 1
 494 -346 l 1
EndSplineSet
Validated: 1
EndChar

StartChar: asciicircum
Encoding: 94 94 64
Width: 914
VWidth: 1536
Flags: W
TeX: 128 0
HStem: 642 675
LayerCount: 2
Fore
SplineSet
814 642 m 1
 699 642 l 1
 456 1187 l 1
 215 642 l 1
 100 642 l 1
 406 1317 l 1
 508 1317 l 1
 814 642 l 1
EndSplineSet
Validated: 1
EndChar

StartChar: underscore
Encoding: 95 95 65
Width: 1192
VWidth: 1003
Flags: W
TeX: 154 0
HStem: -558 108<100 1092>
LayerCount: 2
Fore
SplineSet
1092 -558 m 1
 100 -558 l 1
 100 -450 l 1
 1092 -450 l 1
 1092 -558 l 1
EndSplineSet
Validated: 1
EndChar

StartChar: uni05C4
Encoding: 1476 1476 116
Width: 0
VWidth: 1877
Flags: W
HStem: 1565 323
VStem: -156 312
AnchorPoint: "puncta" 0 0 mark 0
LayerCount: 2
Fore
SplineSet
4 1565 m 1
 -21 1594 -46 1621 -72 1648 c 0
 -98 1675 -126 1701 -156 1726 c 1
 -133 1757 -109 1785 -84 1812 c 0
 -60 1838 -33 1863 -4 1888 c 1
 24 1864 52 1838 80 1810 c 0
 107 1782 133 1753 156 1722 c 1
 127 1697 100 1672 76 1646 c 0
 50 1621 27 1594 4 1565 c 1
EndSplineSet
Validated: 1
EndChar

